# xmcd CD database file
#
# Track frame offsets:
#	150
#	25109
#	60195
#	81817
#	121180
#	164880
#	181858
#	211201
#	246529
#
# Disc length: 3470 seconds
#
# Revision: 0
# Processed by: cddbd v1.4PL0 Copyright (c) Steve Scherf et al.
# Submitted via: CDex 1.51
#
DISCID=720d8c09
DTITLE=Bluiett - With Eyes Wide Open
DYEAR=1999
DGENRE=Jazz
TTITLE0=Africa/Island Song
TTITLE1=Sing Me a Song Everlasting
TTITLE2=Monk and Wes
TTITLE3=Enum
TTITLE4=Song for Camille
TTITLE5=1529 Gunn Street
TTITLE6=Mystery Tune
TTITLE7=Deb
TTITLE8=With Eyes Wide Open
EXTD=YEAR: 1999
EXTT0=
EXTT1=
EXTT2=
EXTT3=
EXTT4=
EXTT5=
EXTT6=
EXTT7=
EXTT8=
PLAYORDER=
